Coordinates
version=1
nRows=11
nColumns=63
inDegrees=yes

Units are S.I. units (second, meters, Newtons, ...)
If the header above contains a line with 'inDegrees', this indicates whether rotational values are in degrees (yes) or radians (no).

endheader
time	pelvis_tilt	pelvis_list	pelvis_rotation	pelvis_tx	pelvis_ty	pelvis_tz	hip_flexion_r	hip_adduction_r	hip_rotation_r	knee_angle_r	knee_angle_r_beta	ankle_angle_r	subtalar_angle_r	mtp_angle_r	hip_flexion_l	hip_adduction_l	hip_rotation_l	knee_angle_l	knee_angle_l_beta	ankle_angle_l	subtalar_angle_l	mtp_angle_l	L5_S1_Flex_Ext	L5_S1_Lat_Bending	L5_S1_axial_rotation	L4_L5_Flex_Ext	L4_L5_Lat_Bending	L4_L5_axial_rotation	L3_L4_Flex_Ext	L3_L4_Lat_Bending	L3_L4_axial_rotation	L2_L3_Flex_Ext	L2_L3_Lat_Bending	L2_L3_axial_rotation	L1_L2_Flex_Ext	L1_L2_Lat_Bending	L1_L2_axial_rotation	L1_T12_Flex_Ext	L1_T12_Lat_Bending	L1_T12_axial_rotation	Abs_r3	Abs_r2	Abs_r1	Abs_t1	Abs_t2	neck_flexion	neck_bending	neck_rotation	arm_flex_r	arm_add_r	arm_rot_r	elbow_flex_r	pro_sup_r	wrist_flex_r	wrist_dev_r	arm_flex_l	arm_add_l	arm_rot_l	elbow_flex_l	pro_sup_l	wrist_flex_l	wrist_dev_l
      1.23728814	     -3.07064344	    -32.98053398	    102.82872194	      0.09561207	      0.79008994	      0.57333893	     69.37254795	    -10.85701522	      1.61005055	     71.41524501	      1.24643116	     57.42963214	     -1.17575952	      0.00000000	     70.46788952	     -0.43153521	    -14.26365484	     71.17728869	      1.24227804	     58.62767426	     17.96009597	      0.00000000	     -0.10608073	     -1.46361847	      0.39408936	     -0.19700253	     -1.94661257	      0.41871994	     -0.17428004	     -3.55864195	      0.41871994	     -0.12123967	     -3.55864195	      0.34482819	     -0.09850657	     -2.98461078	      0.32019760	     -0.06061453	     -2.26714501	      0.29556702	     -0.75772406	    -16.55674486	      2.19180679	      0.00000000	      0.00000000	     27.83124044	      1.48961315	     -5.10060075	     14.18669214	    -13.51053086	      2.98583029	     85.81702691	     89.33128536	    -16.44336184	     -2.23566375	     27.74333264	    -21.37870844	     26.70448129	     85.24082708	     89.41124623	    -21.01751208	     -1.91964920
      1.25423729	     -3.05524855	    -33.33998882	    102.71345590	      0.09541057	      0.78747928	      0.57396311	     69.98791217	    -10.66124666	      1.94380511	     71.78498586	      1.25288436	     57.14593144	     -1.61158749	      0.00000000	     71.13710664	     -0.47595649	    -14.25826982	     71.64989297	      1.25052654	     58.70753724	     18.02697737	      0.00000000	     -0.08005709	     -1.47052902	      0.33479690	     -0.14867401	     -1.95580359	      0.35572170	     -0.13152579	     -3.57544426	      0.35572170	     -0.09149724	     -3.57544426	      0.29294728	     -0.07434101	     -2.99870277	      0.27202248	     -0.04574462	     -2.27784945	      0.25109767	     -0.57183976	    -16.63491836	      1.86203989	      0.00000000	      0.00000000	     27.87765365	      1.39375266	     -4.99271455	     15.05040697	    -13.52529849	      3.72202303	     85.25857896	     89.37008648	    -17.71453391	     -3.07323049	     27.55602284	    -21.21410587	     25.60153941	     85.78072599	     89.39807103	    -20.58471208	     -1.15412387
      1.27118644	     -3.02677154	    -33.82410269	    102.67415942	      0.09520042	      0.78475736	      0.57442284	     70.69564104	    -10.54985256	      2.23896573	     72.14500494	      1.25916788	     56.87644859	     -2.05048792	      0.00000000	     71.93003993	     -0.45233611	    -14.22600121	     72.08532631	      1.25812629	     58.76127990	     18.07138789	      0.00000000	     -0.03050737	     -1.48150708	      0.29908280	     -0.05665524	     -1.97040442	      0.31777548	     -0.05012056	     -3.60213632	      0.31777548	     -0.03486688	     -3.60213632	      0.26169745	     -0.02832915	     -3.02108924	      0.24300478	     -0.01743191	     -2.29485447	      0.22431210	     -0.21791111	    -16.75910442	      1.66340882	      0.00000000	      0.00000000	     27.97515209	      1.24549852	     -5.10926067	     15.57878273	    -13.49833695	      3.91839870	     85.14833763	     89.40048594	    -17.98802498	     -3.41330488	     27.50733190	    -21.08813296	     24.97117647	     86.10177174	     89.36631917	    -20.59991818	     -0.99043514
      1.28813559	     -3.04468500	    -34.06848641	    102.66817173	      0.09508309	      0.78273280	      0.57465842	     71.07869802	    -10.57760812	      2.38566348	     72.45281292	      1.26454014	     56.69619638	     -2.26236411	      0.00000000	     72.48786448	     -0.43821479	    -14.21244804	     72.53661880	      1.26600283	     58.79489319	     18.14240686	      0.00000000	     -0.02312630	     -1.48935424	      0.27398690	     -0.04294785	     -1.98084114	      0.29111108	     -0.03799420	     -3.62121590	      0.29111108	     -0.02643105	     -3.62121590	      0.23973854	     -0.02147508	     -3.03709117	      0.22261435	     -0.01321437	     -2.30700972	      0.20549017	     -0.16518885	    -16.84787306	      1.52383293	      0.00000000	      0.00000000	     28.05332160	      1.28297298	     -5.06321438	     16.04694513	    -13.42308191	      3.89871471	     85.22425547	     89.42947481	    -18.13229685	     -3.53781109	     27.76591544	    -21.02561286	     24.70783760	     86.17191982	     89.33853652	    -20.62318007	     -0.84872401
      1.30508475	     -2.92900323	    -34.66441125	    102.71472167	      0.09530691	      0.78017951	      0.57462914	     71.78184305	    -10.33730178	      2.66830862	     72.70464619	      1.26893546	     56.37900101	     -3.14650205	      0.00000000	     73.43810343	     -0.52335493	    -14.19049944	     72.97996055	      1.27374060	     58.91618973	     18.23678313	      0.00000000	      0.05728061	     -1.49173230	      0.18859028	      0.10637582	     -1.98400395	      0.20037717	      0.09410631	     -3.62699790	      0.20037717	      0.06546601	     -3.62699790	      0.16501649	      0.05319077	     -3.04194050	      0.15322960	      0.03273014	     -2.31069333	      0.14144271	      0.40914966	    -16.87477408	      1.04888254	      0.00000000	      0.00000000	     28.08566446	      1.76314403	     -4.26147616	     16.44833967	    -13.35658323	      4.52163814	     85.44666019	     89.43929988	    -18.92348401	     -3.71220519	     27.39837140	    -21.38588776	     23.87761806	     87.11013032	     89.31230046	    -20.46978173	      0.69884739
      1.32203390	     -2.97333222	    -34.82749856	    102.71576428	      0.09535849	      0.77889336	      0.57449342	     71.97170938	    -10.34965754	      2.80725263	     72.90252516	      1.27238910	     56.31140879	     -3.41000422	      0.00000000	     73.94228552	     -0.55702146	    -14.23327745	     73.43366710	      1.28165927	     59.04084020	     18.33271035	      0.00000000	      0.04791329	     -1.49712282	      0.16467868	      0.08897976	     -1.99117335	      0.17497110	      0.07871674	     -3.64010443	      0.17497110	      0.05476009	     -3.64010443	      0.14409385	      0.04449228	     -3.05293286	      0.13380143	      0.02737765	     -2.31904325	      0.12350901	      0.34223981	    -16.93575278	      0.91589344	      0.00000000	      0.00000000	     28.09424439	      1.89419037	     -4.21015161	     16.71470282	    -13.36842127	      4.46085176	     85.83394091	     89.44533062	    -18.92546558	     -3.66592197	     27.65774182	    -21.53470524	     23.75804852	     87.29147825	     89.28454893	    -20.52958287	      0.75390263
      1.33898305	     -3.03953687	    -35.27069476	    102.50228858	      0.09630390	      0.77743875	      0.57408135	     72.43210865	     -9.89819630	      3.27925307	     73.02323842	      1.27449594	     55.96040867	     -4.41821291	      0.00000000	     74.64961739	     -0.87047221	    -14.44911517	     73.82304141	      1.28845514	     59.19858889	     18.51302046	      0.00000000	      0.09241898	     -1.52001870	      0.16720792	      0.17163128	     -2.02162487	      0.17765841	      0.15183514	     -3.69577347	      0.17765841	      0.10562565	     -3.69577347	      0.14630693	      0.08582026	     -3.09962213	      0.13585643	      0.05280820	     -2.35450897	      0.12540594	      0.66013952	    -17.19475554	      0.92996028	      0.00000000	      0.00000000	     28.04601179	      2.54991316	     -3.79935792	     16.73516946	    -13.31035782	      4.32816191	     86.60183880	     89.44549047	    -18.70930133	     -2.57051164	     27.79869378	    -22.01835708	     23.80735427	     87.93700746	     89.25551242	    -21.14718534	      1.54437734
      1.35593220	     -3.17754587	    -35.34255258	    102.41114643	      0.09665493	      0.77712073	      0.57343351	     72.36920377	     -9.91781828	      3.35630743	     73.01111834	      1.27428441	     55.85642944	     -4.56874944	      0.00000000	     74.93825239	     -0.96983586	    -14.55410573	     74.15927780	      1.29432357	     59.22949370	     18.59977450	      0.00000000	      0.06696929	     -1.53729317	      0.15824122	      0.12436867	     -2.04459992	      0.16813130	      0.11002385	     -3.73777461	      0.16813130	      0.07653920	     -3.73777461	      0.13846107	      0.06218768	     -3.13484823	      0.12857099	      0.03826625	     -2.38126712	      0.11868092	      0.47835494	    -17.39016780	      0.88009021	      0.00000000	      0.00000000	     27.98180787	      2.71219473	     -3.78638163	     16.84081061	    -13.44650258	      4.21000861	     87.19045085	     89.42985417	    -18.62123588	     -2.50885843	     28.07247552	    -22.22454346	     23.72962865	     88.25819903	     89.22610253	    -21.25631160	      1.58647815
      1.37288136	     -4.01568479	    -35.61277943	    101.40575624	      0.09879148	      0.77684356	      0.57225219	     72.60512752	     -9.38865043	      4.37436098	     73.02124088	      1.27446108	     55.55718964	     -5.22242332	      0.00000000	     74.96364438	     -1.48416280	    -15.46205149	     74.22858504	      1.29553321	     59.22125448	     18.79562090	      0.00000000	      0.06361315	     -1.64891302	      0.28666360	      0.11813598	     -2.19305431	      0.30458007	      0.10451004	     -4.00916711	      0.30458007	      0.07270347	     -4.00916711	      0.25083065	      0.05907117	     -3.36246342	      0.23291417	      0.03634855	     -2.55416626	      0.21499770	      0.45438236	    -18.65283382	      1.59433693	      0.00000000	      0.00000000	     27.94144640	      3.45152240	     -4.26864488	     16.50157538	    -13.02211533	      3.08956638	     88.37104924	     89.42378888	    -17.10728098	     -0.56001034	     28.91662980	    -22.92917025	     24.64462021	     88.87564144	     89.20069150	    -22.41548344	      2.85623863
      1.38983051	     -4.08000601	    -35.69511151	    101.32498880	      0.09897839	      0.77707966	      0.57134609	     72.45549191	     -9.35106786	      4.37966290	     72.83350019	      1.27118438	     55.43677658	     -5.29780195	      0.00000000	     75.05937113	     -1.60680515	    -15.53503503	     74.33433090	      1.29737882	     59.04817936	     18.85413100	      0.00000000	      0.05125850	     -1.66304574	      0.27909460	      0.09519216	     -2.21185084	      0.29653801	      0.08421259	     -4.04352942	      0.29653801	      0.05858334	     -4.04352942	      0.24420777	      0.04759864	     -3.39128288	      0.22676436	      0.02928911	     -2.57605786	      0.20932095	      0.36613435	    -18.81270605	      1.55224043	      0.00000000	      0.00000000	     27.85873959	      3.63583837	     -4.30608912	     16.53797866	    -13.15325999	      2.88791060	     89.11783854	     89.39243535	    -17.03363467	     -0.67057969	     29.09838594	    -23.02087766	     24.49441262	     89.24838592	     89.15254260	    -22.48825276	      2.83421151
      1.40677966	     -4.10398895	    -35.79141125	    101.25623571	      0.09932865	      0.77749900	      0.57050228	     72.36963848	     -9.25796118	      4.39860882	     72.66351540	      1.26821759	     55.31566345	     -5.34342350	      0.00000000	     75.11549028	     -1.75512441	    -15.58077312	     74.35327416	      1.29770944	     58.77906411	     18.91839423	      0.00000000	      0.04479083	     -1.67773624	      0.27527064	      0.08318106	     -2.23138920	      0.29247506	      0.07358686	     -4.07924790	      0.29247506	      0.05119144	     -4.07924790	      0.24086181	      0.04159277	     -3.42123974	      0.22365740	      0.02559348	     -2.59881344	      0.20645298	      0.31993645	    -18.97888791	      1.53097274	      0.00000000	      0.00000000	     27.81851884	      3.81463902	     -4.35461324	     16.67833058	    -13.24951123	      2.61217574	     89.88494747	     89.34944924	    -16.94298711	     -0.82979829	     29.26710899	    -23.06095330	     24.33046662	     89.58237336	     89.09858702	    -22.54863034	      2.84021655
